<?xml version="1.0"?>
<svg xmlns="http://www.w3.org/2000/svg" xmlns:xlink="http://www.w3.org/1999/xlink" viewBox="0 0 24 24"><defs><linearGradient gradientUnits="userSpaceOnUse" id="a" x1="-2.25259" x2="26.13025" y1="5.80749" y2="19.04263"><stop offset="0" stop-color="#fff" stop-opacity="0.2"/><stop offset="1" stop-color="#fff" stop-opacity="0"/></linearGradient></defs><title/><path d="M23.50049,24a.49963.49963,0,0,1-.40869-.21094A7.03429,7.03429,0,0,0,21.54,22.45117c-1.03955-.75-2.21777-1.59961-2.5249-2.83008a.49952.49952,0,0,1,.40283-.61425c.93848-.15625,2.29834-.51954,3.1499-.75879a14.44128,14.44128,0,0,0-5.22851-3.27442.50243.50243,0,0,1-.27979-.23633c-.19922-.37011-.41992-.87695-.67529-1.46289C14.86816,9.7959,12.04541,3.32129,4.44629,2.49707a.49988.49988,0,0,1-.229-.08447A9.07068,9.07068,0,0,0,1.5,1C1,1,1,1,1,1.5a6.34833,6.34833,0,0,0,.9043,1.456C2.5835,3.89014,3,4.48828,3,5A9.71984,9.71984,0,0,0,4.82666,9.12109a.5006.5006,0,0,1,.13037.582c-.07764.17481-.15576.33887-.23144.49854A6.33128,6.33128,0,0,0,4,13.5c0,1.85254.77881,3,1.5,3a6.6283,6.6283,0,0,0,.5-3,.50052.50052,0,0,1,.42139-.49414.50612.50612,0,0,1,.55371.33887c.01318.04,1.32715,3.99218,3.81347,5.74707a.4999.4999,0,1,1-.57714.8164,11.61106,11.61106,0,0,1-3.37207-4.30761C6.65479,16.625,6.271,17.5,5.5,17.5c-1.24219,0-2.5-1.374-2.5-4a7.31487,7.31487,0,0,1,.82227-3.727c.02685-.05664.05419-.11377.08154-.17188A10.89082,10.89082,0,0,1,2,5a6.34833,6.34833,0,0,0-.9043-1.456C.4165,2.60986,0,2.01172,0,1.5,0,.44873.44873,0,1.5,0c.84717,0,2.53516,1.082,3.1792,1.51709,8.08252.94531,11.146,7.97168,12.62158,11.35742.20947.48.38965.895.55127,1.21826a15.27475,15.27475,0,0,1,6.03076,4.085.50027.50027,0,0,1-.23926.80079c-.09033.02734-1.96533.58789-3.44726.89843A7.01647,7.01647,0,0,0,22.125,21.64062a7.60938,7.60938,0,0,1,1.7832,1.57032A.49994.49994,0,0,1,23.50049,24Z" fill="#1976d2"/><path d="M6,5.5A.49971.49971,0,0,1,5.5,5,.50034.50034,0,0,0,5,4.5a.5.5,0,0,1,0-1A1.50164,1.50164,0,0,1,6.5,5,.49971.49971,0,0,1,6,5.5Z" fill="#1976d2"/><path d="M23.50049,24a.49963.49963,0,0,1-.40869-.21094A7.03429,7.03429,0,0,0,21.54,22.45117c-1.03955-.75-2.21777-1.59961-2.5249-2.83008a.49952.49952,0,0,1,.40283-.61425c.93848-.15625,2.29834-.51954,3.1499-.75879a14.44128,14.44128,0,0,0-5.22851-3.27442.50243.50243,0,0,1-.27979-.23633c-.19922-.37011-.41992-.87695-.67529-1.46289C14.86816,9.7959,12.04541,3.32129,4.44629,2.49707a.49988.49988,0,0,1-.229-.08447A9.07068,9.07068,0,0,0,1.5,1C1,1,1,1,1,1.5a6.34833,6.34833,0,0,0,.9043,1.456C2.5835,3.89014,3,4.48828,3,5A9.71984,9.71984,0,0,0,4.82666,9.12109a.5006.5006,0,0,1,.13037.582c-.07764.17481-.15576.33887-.23144.49854A6.33128,6.33128,0,0,0,4,13.5c0,1.85254.77881,3,1.5,3a6.6283,6.6283,0,0,0,.5-3,.50052.50052,0,0,1,.42139-.49414.50612.50612,0,0,1,.55371.33887c.01318.04,1.32715,3.99218,3.81347,5.74707a.4999.4999,0,1,1-.57714.8164,11.61106,11.61106,0,0,1-3.37207-4.30761C6.65479,16.625,6.271,17.5,5.5,17.5c-1.24219,0-2.5-1.374-2.5-4a7.31487,7.31487,0,0,1,.82227-3.727c.02685-.05664.05419-.11377.08154-.17188A10.89082,10.89082,0,0,1,2,5a6.34833,6.34833,0,0,0-.9043-1.456C.4165,2.60986,0,2.01172,0,1.5,0,.44873.44873,0,1.5,0c.84717,0,2.53516,1.082,3.1792,1.51709,8.08252.94531,11.146,7.97168,12.62158,11.35742.20947.48.38965.895.55127,1.21826a15.27475,15.27475,0,0,1,6.03076,4.085.50027.50027,0,0,1-.23926.80079c-.09033.02734-1.96533.58789-3.44726.89843A7.01647,7.01647,0,0,0,22.125,21.64062a7.60938,7.60938,0,0,1,1.7832,1.57032A.49994.49994,0,0,1,23.50049,24Z" fill="url(#a)"/><path d="M6,5.5A.49971.49971,0,0,1,5.5,5,.50034.50034,0,0,0,5,4.5a.5.5,0,0,1,0-1A1.50164,1.50164,0,0,1,6.5,5,.49971.49971,0,0,1,6,5.5Z" fill="url(#a)"/></svg>
